<?xml version="1.0" encoding="UTF-8" standalone="no"?>
<!DOCTYPE svg PUBLIC "-//W3C//DTD SVG 1.1//EN" "http://www.w3.org/Graphics/SVG/1.1/DTD/svg11.dtd">
<svg xmlns="http://www.w3.org/2000/svg" version="1.1" viewBox="0 0 1564 537">
<g stroke-width="2.00" fill="none" stroke-linecap="butt">
<path stroke="#fefeff" stroke-opacity="0.980" vector-effect="non-scaling-stroke" d="
  M 1150.66 419.75
  L 1150.69 135.32
  Q 1150.69 135.03 1150.63 135.31
  L 1150.23 137.25"
/>
<path stroke="#fefeff" stroke-opacity="0.980" vector-effect="non-scaling-stroke" d="
  M 368.96 234.75
  Q 368.50 234.68 368.50 235.25
  Q 368.50 380.63 368.52 526.00
  Q 368.52 526.89 369.00 525.96"
/>
</g>
<path fill="#ffffff" d="
  M 68.94 537.00
  L 9.44 537.00
  L 153.84 12.89
  A 0.88 0.87 -82.1 0 1 154.68 12.25
  L 212.89 12.25
  A 0.66 0.66 7.9 0 1 213.53 13.09
  Q 168.85 175.10 124.38 336.79
  Q 96.83 436.94 68.94 537.00
  Z"
/>
<path fill="#ffffff" d="
  M 1150.66 419.75
  L 1150.69 135.32
  Q 1150.69 135.03 1150.63 135.31
  L 1150.23 137.25
  Q 1149.76 116.58 1155.59 97.03
  Q 1158.49 87.34 1163.08 78.52
  Q 1183.47 39.37 1226.56 25.31
  Q 1255.76 15.79 1287.01 16.33
  Q 1296.40 16.49 1306.98 17.27
  Q 1339.08 19.63 1368.50 31.00
  Q 1388.57 38.76 1407.28 52.02
  A 0.97 0.97 17.7 0 1 1407.69 52.81
  L 1407.75 165.54
  A 0.71 0.71 -0.3 0 1 1407.04 166.25
  L 1344.95 166.19
  A 0.71 0.70 90.0 0 1 1344.25 165.48
  L 1344.25 88.01
  A 0.72 0.71 -81.0 0 0 1343.76 87.33
  Q 1328.83 82.47 1313.74 79.28
  Q 1302.00 76.80 1290.01 76.15
  Q 1273.75 75.27 1258.07 79.61
  Q 1238.22 85.10 1227.77 101.49
  Q 1223.48 108.22 1221.11 116.69
  Q 1218.85 124.76 1218.52 133.25
  Q 1218.29 139.13 1218.29 145.00
  Q 1218.25 273.63 1218.25 402.25
  Q 1218.25 407.88 1218.38 413.50
  Q 1219.06 441.61 1240.31 457.69
  Q 1250.68 465.53 1264.02 469.47
  Q 1272.76 472.05 1283.60 473.47
  Q 1301.83 475.88 1319.25 472.25
  Q 1355.68 464.67 1384.72 440.96
  A 0.57 0.57 -36.1 0 1 1385.56 441.10
  L 1415.76 489.51
  A 0.59 0.59 53.5 0 1 1415.65 490.27
  Q 1399.53 504.15 1380.90 513.49
  Q 1353.71 527.11 1323.91 532.09
  Q 1314.30 533.70 1304.01 534.03
  Q 1266.23 535.24 1230.25 524.50
  Q 1218.68 521.05 1207.11 514.95
  Q 1170.56 495.70 1157.00 457.00
  Q 1150.81 439.32 1150.66 419.75
  Z"
/>
<path fill="#ffffff" d="
  M 368.96 234.75
  Q 368.50 234.68 368.50 235.25
  Q 368.50 380.63 368.52 526.00
  Q 368.52 526.89 369.00 525.96
  Q 369.42 526.38 369.23 526.80
  A 0.93 0.62 7.3 0 1 368.44 527.19
  L 301.81 527.25
  A 0.81 0.81 0.1 0 1 301.00 526.44
  L 301.00 23.25
  A 0.50 0.50 0.0 0 1 301.50 22.75
  L 381.97 22.75
  A 0.72 0.72 -9.7 0 1 382.65 23.23
  L 463.76 250.27
  Q 464.11 251.26 464.47 250.27
  L 547.07 23.38
  A 0.96 0.96 -80.0 0 1 547.97 22.75
  L 626.68 22.75
  A 0.82 0.82 -0.2 0 1 627.50 23.57
  L 627.50 526.75
  A 0.50 0.50 0.0 0 1 627.00 527.25
  L 560.45 527.19
  A 0.71 0.70 -90.0 0 1 559.75 526.48
  Q 559.75 377.04 559.75 228.51
  Q 559.75 218.03 560.30 208.52
  Q 562.42 171.95 566.00 135.49
  Q 566.42 131.25 565.07 135.29
  Q 552.80 172.10 540.19 209.19
  Q 536.28 220.67 526.63 245.98
  Q 523.00 255.52 519.67 264.71
  Q 504.44 306.83 488.50 348.54
  A 1.12 1.12 -79.2 0 1 487.46 349.25
  L 439.31 349.19
  A 0.71 0.71 -9.9 0 1 438.64 348.72
  Q 424.98 312.34 412.24 275.63
  Q 404.10 252.17 395.34 228.93
  Q 387.50 208.11 380.49 187.00
  Q 371.57 160.12 363.27 135.76
  Q 361.79 131.42 362.25 135.98
  Q 365.16 165.09 367.25 194.25
  Q 369.01 218.77 368.96 234.75
  Z"
/>
<path fill="#ffffff" d="
  M 793.24 135.75
  Q 791.77 131.29 792.20 135.96
  Q 794.64 162.61 796.73 188.75
  Q 797.90 203.49 798.59 218.25
  Q 799.00 227.05 799.00 238.25
  Q 799.00 382.50 799.00 526.75
  A 0.50 0.50 0.0 0 1 798.50 527.25
  L 731.52 527.25
  A 0.71 0.70 -0.0 0 1 730.81 526.55
  L 730.81 23.46
  A 0.71 0.71 -0.0 0 1 731.52 22.75
  L 811.40 22.75
  A 1.38 1.37 -9.5 0 1 812.70 23.67
  L 893.49 249.93
  Q 893.95 251.20 894.41 249.93
  L 976.92 23.29
  A 0.82 0.81 9.6 0 1 977.69 22.75
  L 1056.69 22.75
  A 0.56 0.56 89.8 0 1 1057.25 23.31
  L 1057.25 526.88
  A 0.37 0.37 90.0 0 1 1056.88 527.25
  L 990.31 527.25
  A 0.56 0.56 0.0 0 1 989.75 526.69
  Q 989.75 382.42 989.75 238.34
  Q 989.75 238.27 989.66 229.16
  Q 989.53 216.05 990.75 198.50
  Q 992.96 166.85 995.75 135.23
  Q 996.02 132.20 995.05 135.09
  Q 983.22 170.41 970.94 206.44
  Q 964.62 224.97 955.06 249.56
  Q 951.37 259.07 937.78 296.80
  Q 928.37 322.92 918.12 348.73
  A 0.73 0.72 10.5 0 1 917.44 349.19
  L 869.32 349.19
  A 0.74 0.73 -10.3 0 1 868.63 348.72
  Q 858.79 323.23 852.50 305.00
  Q 837.77 262.29 824.30 226.60
  Q 820.40 216.25 817.49 207.79
  Q 804.79 170.90 793.24 135.75
  Z"
/>
<path fill="#fdfcfe" fill-opacity="0.961" d="
  M 1150.66 419.75
  Q 1150.25 412.86 1150.25 395.75
  Q 1150.27 266.50 1150.23 137.25
  L 1150.63 135.31
  Q 1150.69 135.03 1150.69 135.32
  L 1150.66 419.75
  Z"
/>
<path fill="#fdfcfe" fill-opacity="0.961" d="
  M 368.96 234.75
  L 369.00 525.96
  Q 368.52 526.89 368.52 526.00
  Q 368.50 380.63 368.50 235.25
  Q 368.50 234.68 368.96 234.75
  Z"
/>
<rect fill="#ffffff" x="1473.76" y="452.01" width="64.74" height="75.24" rx="0.42"/>
</svg>
